<svg id="Logo" xmlns="http://www.w3.org/2000/svg" viewBox="0 0 1141.85 522.62">
  <g>
    <path d="M308.77,251.65a24.29,24.29,0,0,0-13.95-4.8q-11.28,0-19.7,10.38t-8.43,25v68.54H245.48V231.22h21.21v19.09Q278.3,229,301.18,229a96.33,96.33,0,0,1,16.41,2Z" transform="translate(-111.15 -122.67)"/>
    <path d="M400.19,337q-12.72,16-39,16a33.58,33.58,0,0,1-24.39-10.21q-10.32-10.21-10.32-25.4,0-18.19,15.91-30.75T383,274.08A47.47,47.47,0,0,1,398.18,277q0-29-25.9-29-19.86,0-30.58,10.72l-8.93-17.75q6-4.91,16.69-8.43A65,65,0,0,1,369.83,229q26,0,37.78,11.83t11.78,37.62V321.3q0,15.74,9.37,21v10.61q-12.94,0-19.36-3.69T400.19,337Zm-2-45q-10.05-2.22-14.06-2.23-16.08,0-26.24,8.26t-10.15,19.54q0,18.63,22,18.64,16.06,0,28.46-15.3Z" transform="translate(-111.15 -122.67)"/>
    <path d="M526.32,350.77V281.23q0-19.1-5.75-26.74t-19.25-7.64a31.57,31.57,0,0,0-15.18,4.35A33.65,33.65,0,0,0,474,261.92v88.85H452.76V231.22h14.51l6.7,15.4Q484.47,229,508.24,229q39.28,0,39.29,47.77v74Z" transform="translate(-111.15 -122.67)"/>
    <path d="M654.91,350.77,617.4,290.94,598.87,310v40.74h-21.2V182.22h21.2V286.81l45.77-55.59h24.78l-38.29,45.43,46.77,74.12Z" transform="translate(-111.15 -122.67)"/>
    <path d="M793.65,293.06H707.48q0,21,11.5,32.26,10.15,9.82,26.12,9.82,18.2,0,30.36-10.6l8.93,15.29q-4.92,4.91-15.07,8.48A81.37,81.37,0,0,1,741,353q-22.54,0-38.29-15.29-17.52-16.86-17.52-45.32,0-29.58,18-47.44,16.07-16,38.06-16,25.56,0,40.07,14.4,14.07,13.83,14.07,36.72A47.31,47.31,0,0,1,793.65,293.06ZM742.2,246.85q-14.18,0-23.78,9.15A33.23,33.23,0,0,0,708,277.66h66.19q0-12.84-8-21.44Q757.39,246.84,742.2,246.85Z" transform="translate(-111.15 -122.67)"/>
    <path d="M882.62,251.65a24.34,24.34,0,0,0-14-4.8q-11.26,0-19.7,10.38t-8.43,25v68.54h-21.2V231.22h21.2v19.09Q852.14,229,875,229a96.35,96.35,0,0,1,16.4,2Z" transform="translate(-111.15 -122.67)"/>
  </g>
  <g>
    <path d="M896.78,585.72V484h-16.4V466.17H918V585.72ZM908.39,421a12.67,12.67,0,0,1,9.32,3.86,12.53,12.53,0,0,1,3.85,9.2A13.17,13.17,0,1,1,908.39,421Z" transform="translate(-111.15 -122.67)"/>
    <path d="M1025.26,585.72V516.18q0-19.09-5.75-26.74t-19.25-7.64a31.57,31.57,0,0,0-15.18,4.35,33.65,33.65,0,0,0-12.17,10.72v88.85H951.7V466.17h14.51l6.7,15.4q10.49-17.62,34.27-17.63,39.28,0,39.29,47.77v74Z" transform="translate(-111.15 -122.67)"/>
    <path d="M1177.29,528h-86.17q0,21,11.49,32.26,10.17,9.83,26.12,9.82,18.19,0,30.36-10.6l8.93,15.29q-4.9,4.9-15.07,8.48A81.37,81.37,0,0,1,1124.6,588q-22.55,0-38.28-15.29-17.53-16.86-17.53-45.32,0-29.58,18-47.44,16.08-16,38.07-16,25.56,0,40.07,14.4Q1179,492.17,1179,515.06A47.71,47.71,0,0,1,1177.29,528Zm-51.46-46.21q-14.17,0-23.77,9.15a33.19,33.19,0,0,0-10.39,21.66h66.2q0-12.84-8-21.44Q1141,481.8,1125.83,481.8Z" transform="translate(-111.15 -122.67)"/>
  </g>
  <g>
    <path d="M298.06,598.42l-19.42-105L242.92,600.65h-5.58L200.61,493.38l-19,105H160.43L191,434.89h10.16l39,119.32,35.94-119.32h10l33.16,163.53Z" transform="translate(-111.15 -122.67)"/>
    <path d="M403,584.69q-12.72,16-39,16a33.55,33.55,0,0,1-24.39-10.21q-10.33-10.22-10.33-25.4,0-18.19,15.91-30.75t40.57-12.56A47.37,47.37,0,0,1,401,524.64q0-29-25.89-29-19.87,0-30.59,10.72l-8.93-17.75q6-4.9,16.69-8.43a65.14,65.14,0,0,1,20.37-3.51q26,0,37.78,11.83t11.78,37.62V569q0,15.74,9.38,21v10.61q-13,0-19.37-3.69T403,584.69Zm-2-45q-10.05-2.22-14.06-2.23-16.08,0-26.23,8.26t-10.16,19.54q0,18.63,22,18.64,16.07,0,28.46-15.3Z" transform="translate(-111.15 -122.67)"/>
    <path d="M451.2,631.12l11.5-17q18.53,12.39,34.15,12.39,14.4,0,22.72-5t8.32-12.34q0-14.5-21-14.51A83.31,83.31,0,0,0,494,596.52a83.72,83.72,0,0,1-14.62,1.79q-25.45,0-25.45-19.2,0-5.93,6-10.72a37,37,0,0,1,14.79-6.92q-25.23-11.84-25.22-41.08,0-18.75,13.06-31.25t32.25-12.5q17.64,0,27.57,7.25l10.61-12.72,13.84,13.06L534,493.83q8.16,10.6,8.15,27.68,0,18.07-11.27,30.36t-29.58,14.07l-17.52,1.78a34.26,34.26,0,0,0-8.38,2.4q-5.24,2.07-5.24,5.41,0,4.59,10.94,4.58a99.82,99.82,0,0,0,14.95-1.73,100.18,100.18,0,0,1,15.07-1.73q17.64,0,27.52,8.43t9.88,23.38q0,16.53-14.79,26.68T496.3,645.3a80,80,0,0,1-24.45-4.13Q459,637,451.2,631.12Zm45-137.4q-11,0-18,7.81a27.49,27.49,0,0,0-7,19q0,12.5,6.75,20.7t18.25,8.21q11.28,0,17.64-8t6.36-20.92a27.73,27.73,0,0,0-6.86-19A21.88,21.88,0,0,0,496.18,493.72Z" transform="translate(-111.15 -122.67)"/>
    <path d="M637.83,584.69q-12.72,16-39,16a33.55,33.55,0,0,1-24.39-10.21q-10.34-10.22-10.33-25.4,0-18.19,15.91-30.75t40.57-12.56a47.37,47.37,0,0,1,15.18,2.91q0-29-25.89-29-19.87,0-30.59,10.72l-8.93-17.75q6-4.9,16.69-8.43a65.14,65.14,0,0,1,20.37-3.51q26,0,37.78,11.83T657,526.09V569q0,15.74,9.38,21v10.61q-12.95,0-19.37-3.69T637.83,584.69Zm-2-45q-10-2.22-14.06-2.23-16.08,0-26.23,8.26t-10.16,19.54q0,18.63,22,18.64,16.08,0,28.46-15.3Z" transform="translate(-111.15 -122.67)"/>
  </g>
  <polygon id="FZ" points="31.01 227.15 0 227.15 0 0.03 944.71 0 617.98 494.31 1141.85 494.31 1141.85 522.34 563.6 522.33 887.93 28.07 31.01 27.94 31.01 91.03 110.85 91.03 110.85 117.39 31.01 117.39 31.01 227.15"/>
</svg>
