<svg id="Logo" xmlns="http://www.w3.org/2000/svg" viewBox="0 0 200 91.54">
  <g>
    <path d="M719.68,419.32V401.51h-2.87v-3.13h6.59v20.94Zm2-28.86a2.22,2.22,0,0,1,1.63.68,2.18,2.18,0,0,1,.67,1.61,2.31,2.31,0,1,1-2.3-2.29Z" transform="translate(-582.08 -338.22)"/>
    <path d="M742.19,419.32V407.14c0-2.23-.34-3.79-1-4.68a3.93,3.93,0,0,0-3.37-1.34,5.49,5.49,0,0,0-2.66.76,5.79,5.79,0,0,0-2.13,1.88v15.56H729.3V398.38h2.54l1.18,2.7q1.83-3.09,6-3.09,6.88,0,6.88,8.37v13Z" transform="translate(-582.08 -338.22)"/>
    <path d="M768.81,409.21H753.72a7.52,7.52,0,0,0,2,5.65,6.28,6.28,0,0,0,4.57,1.72,7.85,7.85,0,0,0,5.32-1.85l1.56,2.67a6.89,6.89,0,0,1-2.64,1.49,14.18,14.18,0,0,1-5,.82,9.25,9.25,0,0,1-6.71-2.68,10.49,10.49,0,0,1-3.07-7.94,11.16,11.16,0,0,1,3.15-8.3,9.13,9.13,0,0,1,6.67-2.8,9.51,9.51,0,0,1,7,2.52,8.6,8.6,0,0,1,2.47,6.43A8.1,8.1,0,0,1,768.81,409.21Zm-9-8.09a5.87,5.87,0,0,0-6,5.39h11.59a5.31,5.31,0,0,0-1.4-3.75A5.53,5.53,0,0,0,759.8,401.12Z" transform="translate(-582.08 -338.22)"/>
  </g>
  <g>
    <path d="M614.81,421.54l-3.4-18.39-6.25,18.79h-1l-6.43-18.79-3.33,18.39h-3.71l5.35-28.64h1.78l6.83,20.9L611,392.9h1.76l5.81,28.64Z" transform="translate(-582.08 -338.22)"/>
    <path d="M633.19,419.14c-1.48,1.86-3.76,2.8-6.82,2.8a5.87,5.87,0,0,1-4.27-1.79,6,6,0,0,1-1.81-4.45,6.66,6.66,0,0,1,2.78-5.39,11.17,11.17,0,0,1,7.11-2.2,8.32,8.32,0,0,1,2.66.51q0-5.08-4.54-5.08a7.23,7.23,0,0,0-5.35,1.87l-1.57-3.1a9.09,9.09,0,0,1,2.93-1.48,11.36,11.36,0,0,1,3.56-.62q4.56,0,6.62,2.08c1.38,1.38,2.06,3.57,2.06,6.59v7.5c0,1.84.55,3.07,1.65,3.68v1.86a7,7,0,0,1-3.4-.65A3.65,3.65,0,0,1,633.19,419.14Zm-.35-7.88a13.4,13.4,0,0,0-2.46-.39,7,7,0,0,0-4.6,1.45,4.31,4.31,0,0,0-1.78,3.42c0,2.17,1.29,3.26,3.85,3.26a6.32,6.32,0,0,0,5-2.68Z" transform="translate(-582.08 -338.22)"/>
    <path d="M641.64,427.27l2-3a11,11,0,0,0,6,2.17,7.76,7.76,0,0,0,4-.87,2.52,2.52,0,0,0,1.46-2.16q0-2.54-3.68-2.54a14.22,14.22,0,0,0-2.26.31,14.51,14.51,0,0,1-2.57.31q-4.45,0-4.45-3.36a2.4,2.4,0,0,1,1-1.87,6.42,6.42,0,0,1,2.59-1.22,7.91,7.91,0,0,1-2.13-12.67,7.87,7.87,0,0,1,5.65-2.19,8.11,8.11,0,0,1,4.83,1.27l1.86-2.22,2.42,2.28-2.23,1.69a8.5,8.5,0,0,1-.54,10.16,7.74,7.74,0,0,1-5.18,2.46l-3.07.32a6.07,6.07,0,0,0-1.47.42c-.61.24-.92.56-.92,1s.64.8,1.92.8a16.69,16.69,0,0,0,2.62-.31,17.44,17.44,0,0,1,2.64-.3,7.18,7.18,0,0,1,4.82,1.48,5.1,5.1,0,0,1,1.73,4.09A5.46,5.46,0,0,1,656.1,428a11.4,11.4,0,0,1-6.56,1.78,14.1,14.1,0,0,1-4.29-.73A12.14,12.14,0,0,1,641.64,427.27Zm7.88-24.06a4,4,0,0,0-3.16,1.36,4.81,4.81,0,0,0-1.22,3.33,5.47,5.47,0,0,0,1.18,3.62,3.92,3.92,0,0,0,3.2,1.44,3.73,3.73,0,0,0,3.09-1.4,5.7,5.7,0,0,0,1.11-3.66,4.88,4.88,0,0,0-1.2-3.33A3.82,3.82,0,0,0,649.52,403.21Z" transform="translate(-582.08 -338.22)"/>
    <path d="M674.33,419.14c-1.49,1.86-3.76,2.8-6.83,2.8a5.89,5.89,0,0,1-4.27-1.79,6,6,0,0,1-1.81-4.45,6.64,6.64,0,0,1,2.79-5.39,11.17,11.17,0,0,1,7.11-2.2,8.26,8.26,0,0,1,2.65.51q0-5.08-4.53-5.08a7.26,7.26,0,0,0-5.36,1.87l-1.56-3.1a9,9,0,0,1,2.92-1.48,11.42,11.42,0,0,1,3.57-.62c3,0,5.24.69,6.62,2.08s2.06,3.57,2.06,6.59v7.5c0,1.84.55,3.07,1.64,3.68v1.86a7,7,0,0,1-3.39-.65A3.61,3.61,0,0,1,674.33,419.14Zm-.36-7.88a13.4,13.4,0,0,0-2.46-.39,7,7,0,0,0-4.59,1.45,4.28,4.28,0,0,0-1.78,3.42q0,3.25,3.85,3.26a6.29,6.29,0,0,0,5-2.68Z" transform="translate(-582.08 -338.22)"/>
  </g>
  <g>
    <path d="M616.69,360.81a4.26,4.26,0,0,0-2.44-.84,4.34,4.34,0,0,0-3.45,1.81,6.73,6.73,0,0,0-1.48,4.38v12H605.6V357.23h3.72v3.34a6.5,6.5,0,0,1,6-3.73,16.21,16.21,0,0,1,2.87.35Z" transform="translate(-582.08 -338.22)"/>
    <path d="M632.7,375.76c-1.48,1.87-3.76,2.8-6.82,2.8a5.87,5.87,0,0,1-4.27-1.79,6,6,0,0,1-1.81-4.45,6.64,6.64,0,0,1,2.78-5.38,11.11,11.11,0,0,1,7.11-2.2,8.56,8.56,0,0,1,2.66.5c0-3.38-1.51-5.08-4.54-5.08a7.24,7.24,0,0,0-5.35,1.88l-1.57-3.11a9.29,9.29,0,0,1,2.93-1.48,11.34,11.34,0,0,1,3.56-.61q4.56,0,6.62,2.07c1.38,1.38,2.06,3.58,2.06,6.59V373c0,1.83.55,3.06,1.65,3.67v1.86a7,7,0,0,1-3.39-.65A3.66,3.66,0,0,1,632.7,375.76Zm-.35-7.88a13.4,13.4,0,0,0-2.46-.39,7,7,0,0,0-4.6,1.45,4.31,4.31,0,0,0-1.78,3.42c0,2.18,1.29,3.27,3.85,3.27a6.35,6.35,0,0,0,5-2.68Z" transform="translate(-582.08 -338.22)"/>
    <path d="M654.79,378.17V366c0-2.23-.33-3.79-1-4.69a4,4,0,0,0-3.37-1.33,5.49,5.49,0,0,0-2.66.76,5.86,5.86,0,0,0-2.13,1.87v15.57h-3.72V357.23h2.54l1.18,2.7q1.83-3.09,6-3.09,6.89,0,6.88,8.36v13Z" transform="translate(-582.08 -338.22)"/>
    <path d="M677.32,378.17l-6.57-10.48L667.5,371v7.14h-3.71V348.65h3.71V367l8-9.73h4.34l-6.71,8,8.19,13Z" transform="translate(-582.08 -338.22)"/>
    <path d="M701.62,368.06H686.53a7.57,7.57,0,0,0,2,5.65,6.3,6.3,0,0,0,4.57,1.72,7.79,7.79,0,0,0,5.32-1.86l1.57,2.68a7.19,7.19,0,0,1-2.64,1.49,14.47,14.47,0,0,1-5,.82,9.23,9.23,0,0,1-6.7-2.68,10.49,10.49,0,0,1-3.07-7.94,11.2,11.2,0,0,1,3.14-8.31,9.16,9.16,0,0,1,6.67-2.79,9.54,9.54,0,0,1,7,2.52,9.48,9.48,0,0,1,2.17,8.7Zm-9-8.09a5.87,5.87,0,0,0-6,5.39h11.6a5.26,5.26,0,0,0-1.41-3.75A5.47,5.47,0,0,0,692.61,360Z" transform="translate(-582.08 -338.22)"/>
    <path d="M717.2,360.81a4.26,4.26,0,0,0-2.44-.84,4.34,4.34,0,0,0-3.45,1.81,6.73,6.73,0,0,0-1.48,4.38v12h-3.71V357.23h3.71v3.34a6.51,6.51,0,0,1,6-3.73,16.4,16.4,0,0,1,2.88.35Z" transform="translate(-582.08 -338.22)"/>
  </g>
  <polygon id="FZ" points="5.43 39.79 0 39.79 0 0.01 165.47 0 108.24 86.58 200 86.58 200 91.49 98.72 91.49 155.53 4.92 5.43 4.89 5.43 15.95 19.41 15.95 19.41 20.56 5.43 20.56 5.43 39.79"/>
</svg>
